<svg xml:space="preserve" style="enable-background:new 0 0 25 25;" viewBox="0 0 25 25" y="0px" x="0px" xmlns:xlink="http://www.w3.org/1999/xlink" xmlns="http://www.w3.org/2000/svg" id="Capa_1" version="1.1">
<style type="text/css">
	.st0{fill:#B4B4B4;}
</style>
<path d="M25,3.1v18.8c0,1.7-1.4,3.1-3.1,3.1h-4.7v-8.6h2.3l1.6-3.9h-3.9V9.4c0-0.9,0.7-0.8,1.6-0.8h1.6V4.7h-3.1
	c-1.3,0-2.5,0.5-3.3,1.4c-0.8,0.8-1.4,2-1.4,3.3v3.1H9.4v3.9h3.1V25H3.1C1.4,25,0,23.6,0,21.9V3.1C0,1.4,1.4,0,3.1,0h18.8
	C23.6,0,25,1.4,25,3.1z" class="st0"></path>
</svg>
