<svg xml:space="preserve" style="enable-background:new 0 0 25 25;" viewBox="0 0 25 25" y="0px" x="0px" xmlns:xlink="http://www.w3.org/1999/xlink" xmlns="http://www.w3.org/2000/svg" id="Layer_1" version="1.1">
<style type="text/css">
	.st0{fill:#B4B4B4;}
</style>
<path d="M24.9,7.3c-0.1-1.3-0.3-2.2-0.6-3c-0.3-0.8-0.8-1.6-1.4-2.2c-0.6-0.6-1.4-1.1-2.2-1.4c-0.8-0.3-1.7-0.5-3-0.6
	C16.3,0,15.9,0,12.5,0S8.7,0,7.4,0.1C6,0.1,5.1,0.3,4.3,0.7C3.5,1,2.7,1.5,2.1,2.1C1.5,2.7,1,3.5,0.7,4.3C0.4,5.1,0.1,6,0.1,7.3
	C0,8.7,0,9.1,0,12.5s0,3.8,0.1,5.2c0.1,1.3,0.3,2.2,0.6,3c0.3,0.8,0.8,1.6,1.4,2.2c0.6,0.6,1.4,1.1,2.2,1.4c0.8,0.3,1.7,0.5,3,0.6
	C8.7,25,9.1,25,12.5,25s3.8,0,5.2-0.1c1.3-0.1,2.2-0.3,3-0.6c1.7-0.6,3-2,3.7-3.7c0.3-0.8,0.5-1.7,0.6-3c0.1-1.3,0.1-1.8,0.1-5.2
	S25,8.7,24.9,7.3z M22.7,17.6c-0.1,1.2-0.3,1.9-0.4,2.3c-0.4,1.1-1.3,2-2.4,2.4c-0.4,0.2-1.1,0.4-2.3,0.4c-1.3,0.1-1.7,0.1-5.1,0.1
	s-3.7,0-5.1-0.1c-1.2-0.1-1.9-0.3-2.3-0.4c-0.5-0.2-1-0.5-1.4-0.9c-0.4-0.4-0.7-0.9-0.9-1.4c-0.2-0.4-0.4-1.1-0.4-2.3
	c-0.1-1.3-0.1-1.7-0.1-5.1s0-3.7,0.1-5.1c0.1-1.2,0.3-1.9,0.4-2.3c0.2-0.5,0.5-1,0.9-1.4C4.1,3.3,4.6,3,5.1,2.8
	c0.4-0.2,1.1-0.4,2.3-0.4c1.3-0.1,1.7-0.1,5.1-0.1c3.3,0,3.7,0,5.1,0.1c1.2,0.1,1.9,0.3,2.3,0.4c0.5,0.2,1,0.5,1.4,0.9
	c0.4,0.4,0.7,0.9,0.9,1.4c0.2,0.4,0.4,1.1,0.4,2.3c0.1,1.3,0.1,1.7,0.1,5.1S22.7,16.2,22.7,17.6z M12.5,6.1C9,6.1,6.1,9,6.1,12.5
	s2.9,6.4,6.4,6.4c3.5,0,6.4-2.9,6.4-6.4S16.1,6.1,12.5,6.1z M12.5,16.7c-2.3,0-4.2-1.9-4.2-4.2s1.9-4.2,4.2-4.2
	c2.3,0,4.2,1.9,4.2,4.2S14.8,16.7,12.5,16.7z M20.7,5.8c0,0.8-0.7,1.5-1.5,1.5c-0.8,0-1.5-0.7-1.5-1.5c0-0.8,0.7-1.5,1.5-1.5
	C20,4.3,20.7,5,20.7,5.8z" class="st0"></path>
</svg>
