<svg xml:space="preserve" style="enable-background:new 0 0 25 25;" viewBox="0 0 25 25" y="0px" x="0px" xmlns:xlink="http://www.w3.org/1999/xlink" xmlns="http://www.w3.org/2000/svg" id="Layer_1" version="1.1">
<style type="text/css">
	.st0{fill:#B4B4B4;}
</style>
<path d="M22.7,0H2.3C1,0,0,1,0,2.3v20.5C0,24,1,25,2.3,25h20.5c1.2,0,2.3-1,2.3-2.3V2.3C25,1,24,0,22.7,0z M7.7,21.6
	c0,0.4-0.3,0.7-0.7,0.7H4.3c-0.4,0-0.7-0.3-0.7-0.7V9.8c0-0.4,0.3-0.7,0.7-0.7h2.8c0.4,0,0.7,0.3,0.7,0.7V21.6z M5.7,8.1
	C4.2,8.1,3,6.9,3,5.4s1.2-2.7,2.7-2.7s2.7,1.2,2.7,2.7S7.1,8.1,5.7,8.1z M22.4,21.6c0,0.3-0.3,0.6-0.6,0.6h-3
	c-0.3,0-0.6-0.3-0.6-0.6v-5.5c0-0.8,0.2-3.6-2.1-3.6c-1.9,0-2.2,1.9-2.3,2.8v6.4c0,0.3-0.3,0.6-0.6,0.6h-2.9c-0.3,0-0.6-0.3-0.6-0.6
	V9.8c0-0.3,0.3-0.6,0.6-0.6h2.9c0.3,0,0.6,0.3,0.6,0.6v1c0.7-1,1.7-1.8,3.9-1.8c4.8,0,4.8,4.5,4.8,7L22.4,21.6L22.4,21.6z" class="st0"></path>
</svg>
